<svg xmlns="http://www.w3.org/2000/svg" xmlns:xlink="http://www.w3.org/1999/xlink" width="2048" zoomAndPan="magnify" viewBox="0 0 1536 863.999991" height="1152" preserveAspectRatio="xMidYMid meet" version="1.0"><defs><clipPath id="id1"><path d="M 411.46875 227.816406 L 757.21875 227.816406 L 757.21875 573.566406 L 411.46875 573.566406 Z M 411.46875 227.816406 " clip-rule="nonzero"/></clipPath></defs><path fill="rgb(56.858826%, 56.858826%, 56.858826%)" d="M 584.335938 113.53125 C 424.65625 113.53125 295.210938 242.136719 295.210938 400.78125 C 295.210938 559.425781 424.65625 688.03125 584.335938 688.03125 C 744.011719 688.03125 873.460938 559.425781 873.460938 400.78125 C 873.460938 242.136719 744.011719 113.53125 584.335938 113.53125 " fill-opacity="1" fill-rule="nonzero"/><g clip-path="url(#id1)"><path fill="rgb(100%, 100%, 100%)" d="M 507.511719 227.816406 C 454.476562 227.816406 411.46875 270.824219 411.46875 323.855469 L 411.46875 477.523438 C 411.46875 530.558594 454.476562 573.566406 507.511719 573.566406 L 661.175781 573.566406 C 714.210938 573.566406 757.21875 530.558594 757.21875 477.523438 L 757.21875 323.855469 C 757.21875 270.824219 714.210938 227.816406 661.175781 227.816406 Z M 699.59375 266.230469 C 710.199219 266.230469 718.800781 274.835938 718.800781 285.441406 C 718.800781 296.042969 710.199219 304.648438 699.59375 304.648438 C 688.992188 304.648438 680.386719 296.042969 680.386719 285.441406 C 680.386719 274.835938 688.992188 266.230469 699.59375 266.230469 Z M 584.34375 304.648438 C 637.378906 304.648438 680.386719 347.65625 680.386719 400.691406 C 680.386719 453.722656 637.378906 496.730469 584.34375 496.730469 C 531.308594 496.730469 488.300781 453.722656 488.300781 400.691406 C 488.300781 347.65625 531.308594 304.648438 584.34375 304.648438 Z M 584.34375 343.066406 C 582.457031 343.066406 580.574219 343.15625 578.695312 343.34375 C 576.816406 343.527344 574.953125 343.804688 573.101562 344.171875 C 571.25 344.539062 569.421875 345 567.617188 345.546875 C 565.8125 346.09375 564.035156 346.730469 562.292969 347.453125 C 560.546875 348.171875 558.84375 348.980469 557.179688 349.871094 C 555.515625 350.757812 553.898438 351.726562 552.328125 352.777344 C 550.761719 353.824219 549.246094 354.949219 547.789062 356.144531 C 546.328125 357.34375 544.933594 358.609375 543.597656 359.941406 C 542.261719 361.277344 540.996094 362.675781 539.800781 364.132812 C 538.601562 365.59375 537.480469 367.105469 536.429688 368.675781 C 535.382812 370.246094 534.414062 371.859375 533.523438 373.527344 C 532.632812 375.191406 531.828125 376.894531 531.105469 378.636719 C 530.382812 380.382812 529.75 382.15625 529.199219 383.960938 C 528.652344 385.769531 528.195312 387.597656 527.828125 389.449219 C 527.457031 391.296875 527.183594 393.164062 526.996094 395.042969 C 526.8125 396.917969 526.71875 398.800781 526.71875 400.691406 C 526.71875 402.578125 526.8125 404.460938 526.996094 406.339844 C 527.183594 408.214844 527.457031 410.082031 527.828125 411.933594 C 528.195312 413.78125 528.652344 415.613281 529.199219 417.417969 C 529.75 419.222656 530.382812 421 531.105469 422.742188 C 531.828125 424.484375 532.632812 426.191406 533.523438 427.855469 C 534.414062 429.519531 535.382812 431.136719 536.429688 432.703125 C 537.480469 434.273438 538.601562 435.789062 539.800781 437.246094 C 540.996094 438.707031 542.261719 440.101562 543.597656 441.4375 C 544.933594 442.769531 546.328125 444.039062 547.789062 445.234375 C 549.246094 446.433594 550.761719 447.554688 552.328125 448.601562 C 553.898438 449.652344 555.515625 450.621094 557.179688 451.511719 C 558.84375 452.398438 560.546875 453.207031 562.292969 453.929688 C 564.035156 454.652344 565.8125 455.285156 567.617188 455.832031 C 569.421875 456.382812 571.25 456.839844 573.101562 457.207031 C 574.953125 457.574219 576.816406 457.851562 578.695312 458.039062 C 580.574219 458.222656 582.457031 458.316406 584.34375 458.316406 C 586.230469 458.316406 588.113281 458.222656 589.992188 458.039062 C 591.871094 457.851562 593.734375 457.574219 595.585938 457.207031 C 597.4375 456.839844 599.265625 456.382812 601.070312 455.832031 C 602.878906 455.285156 604.652344 454.652344 606.394531 453.929688 C 608.140625 453.207031 609.84375 452.398438 611.507812 451.511719 C 613.171875 450.621094 614.789062 449.652344 616.359375 448.601562 C 617.929688 447.554688 619.441406 446.433594 620.902344 445.234375 C 622.359375 444.039062 623.757812 442.769531 625.089844 441.4375 C 626.425781 440.101562 627.691406 438.707031 628.890625 437.246094 C 630.085938 435.789062 631.210938 434.273438 632.257812 432.703125 C 633.304688 431.136719 634.273438 429.519531 635.164062 427.855469 C 636.054688 426.191406 636.859375 424.484375 637.582031 422.742188 C 638.304688 421 638.941406 419.222656 639.488281 417.417969 C 640.035156 415.613281 640.492188 413.78125 640.863281 411.933594 C 641.230469 410.082031 641.507812 408.214844 641.691406 406.339844 C 641.875 404.460938 641.96875 402.578125 641.96875 400.691406 C 641.96875 398.800781 641.875 396.917969 641.691406 395.042969 C 641.507812 393.164062 641.230469 391.296875 640.863281 389.449219 C 640.492188 387.597656 640.035156 385.769531 639.488281 383.960938 C 638.941406 382.15625 638.304688 380.382812 637.582031 378.636719 C 636.859375 376.894531 636.054688 375.191406 635.164062 373.527344 C 634.273438 371.859375 633.304688 370.246094 632.257812 368.675781 C 631.210938 367.105469 630.085938 365.59375 628.890625 364.132812 C 627.691406 362.675781 626.425781 361.277344 625.089844 359.941406 C 623.757812 358.609375 622.359375 357.34375 620.902344 356.144531 C 619.441406 354.949219 617.929688 353.824219 616.359375 352.777344 C 614.789062 351.726562 613.171875 350.757812 611.507812 349.867188 C 609.84375 348.980469 608.140625 348.171875 606.394531 347.453125 C 604.652344 346.730469 602.878906 346.09375 601.070312 345.546875 C 599.265625 345 597.4375 344.539062 595.585938 344.171875 C 593.734375 343.804688 591.871094 343.527344 589.992188 343.34375 C 588.113281 343.15625 586.230469 343.066406 584.34375 343.066406 Z M 584.34375 343.066406 " fill-opacity="1" fill-rule="nonzero"/></g></svg>