<svg xmlns="http://www.w3.org/2000/svg" xmlns:xlink="http://www.w3.org/1999/xlink" width="2048" zoomAndPan="magnify" viewBox="0 0 1536 863.999991" height="1152" preserveAspectRatio="xMidYMid meet" version="1.0"><defs><clipPath id="id1"><path d="M 414.925781 230 L 753.925781 230 L 753.925781 572 L 414.925781 572 Z M 414.925781 230 " clip-rule="nonzero"/></clipPath></defs><path fill="rgb(56.858826%, 56.858826%, 56.858826%)" d="M 584.335938 113.53125 C 424.65625 113.53125 295.210938 242.136719 295.210938 400.78125 C 295.210938 559.425781 424.65625 688.03125 584.335938 688.03125 C 744.011719 688.03125 873.460938 559.425781 873.460938 400.78125 C 873.460938 242.136719 744.011719 113.53125 584.335938 113.53125 " fill-opacity="1" fill-rule="nonzero"/><path fill="rgb(100%, 100%, 100%)" d="M 597.265625 383.890625 L 597.265625 383.363281 C 597.15625 383.535156 597.039062 383.722656 596.921875 383.890625 Z M 597.265625 383.890625 " fill-opacity="1" fill-rule="nonzero"/><g clip-path="url(#id1)"><path fill="rgb(100%, 100%, 100%)" d="M 728.980469 230.019531 L 439.9375 230.019531 C 426.097656 230.019531 414.882812 240.972656 414.882812 254.457031 L 414.882812 546.730469 C 414.882812 560.222656 426.105469 571.164062 439.9375 571.164062 L 728.980469 571.164062 C 742.835938 571.164062 754.046875 560.207031 754.046875 546.730469 L 754.046875 254.457031 C 754.054688 240.957031 742.828125 230.019531 728.980469 230.019531 Z M 517.6875 515.605469 L 466.460938 515.605469 L 466.460938 361.558594 L 517.695312 361.558594 L 517.695312 515.605469 Z M 492.078125 340.515625 L 491.734375 340.515625 C 474.550781 340.515625 463.433594 328.675781 463.433594 313.902344 C 463.433594 298.792969 474.894531 287.289062 492.414062 287.289062 C 509.949219 287.289062 520.722656 298.792969 521.066406 313.902344 C 521.066406 328.683594 509.933594 340.515625 492.078125 340.515625 Z M 702.417969 515.605469 L 651.1875 515.605469 L 651.1875 433.175781 C 651.1875 412.472656 643.777344 398.34375 625.242188 398.34375 C 611.09375 398.34375 602.664062 407.878906 598.953125 417.074219 C 597.601562 420.363281 597.273438 424.949219 597.273438 429.558594 L 597.273438 515.597656 L 546.042969 515.597656 C 546.042969 515.597656 546.714844 375.992188 546.042969 361.546875 L 597.273438 361.546875 L 597.273438 383.355469 C 604.078125 372.863281 616.253906 357.917969 643.449219 357.917969 C 677.148438 357.917969 702.429688 379.941406 702.429688 427.253906 Z M 702.417969 515.605469 " fill-opacity="1" fill-rule="nonzero"/></g></svg>